<svg xmlns="http://www.w3.org/2000/svg" viewBox="0 0 677.54 365.97"><defs><style>.cls-1,.cls-2,.cls-4{fill:none;stroke:#fff;stroke-miterlimit:10;}.cls-1{stroke-width:14px;}.cls-2{stroke-linecap:round;stroke-width:15px;}.cls-3{fill:#fff;}.cls-4{stroke-width:10px;}</style></defs><g id="Camada_2" data-name="Camada 2"><g id="Camada_1-2" data-name="Camada 1"><path class="cls-1" d="M211.18,120.1l7.53,13.77a32.18,32.18,0,0,0,12.77,12.78l13.77,7.53c22.29,12.19,22.29,44.2,0,56.39l-13.77,7.53a32.15,32.15,0,0,0-12.77,12.77l-7.53,13.77c-12.19,22.29-44.2,22.29-56.39,0l-7.53-13.77a32.11,32.11,0,0,0-12.78-12.77l-13.77-7.53c-22.29-12.19-22.29-44.2,0-56.39l13.77-7.53a32.14,32.14,0,0,0,12.78-12.78l7.53-13.77C167,97.81,199,97.81,211.18,120.1Z"/><path class="cls-1" d="M245.8,44.24l16.78,30.68A71.59,71.59,0,0,0,291,103.39l30.68,16.78c49.66,27.15,49.66,98.47,0,125.63L291,262.58A71.63,71.63,0,0,0,262.58,291L245.8,321.72c-27.16,49.66-98.48,49.66-125.63,0L103.39,291a71.59,71.59,0,0,0-28.47-28.46L44.24,245.8c-49.65-27.16-49.65-98.48,0-125.63l30.68-16.78a71.55,71.55,0,0,0,28.47-28.47l16.78-30.68C147.32-5.41,218.64-5.41,245.8,44.24Z"/><path class="cls-2" d="M325.81,202.73a27.92,27.92,0,0,0,.29-39.49"/><path class="cls-3" d="M389.13,355.41H383.3a2.8,2.8,0,0,1-2.9-3,2.84,2.84,0,0,1,3-2.93h6.1a1.08,1.08,0,0,0,1.18-1.08,1.1,1.1,0,0,0-1.18-1.15h-3c-4.14,0-6.25-1.93-6.25-6.31q0-6.84,6.67-6.83h4.72a2.91,2.91,0,0,1,3.08,2.93,3,3,0,0,1-3.11,3h-5.08a1.06,1.06,0,0,0-1.15,1.12,1.07,1.07,0,0,0,1.15,1.09h3c4.26,0,6.25,2,6.25,6.37S393.54,355.41,389.13,355.41Z"/><path class="cls-3" d="M408.4,333.94a10.85,10.85,0,1,1-10.85,10.84A10.84,10.84,0,0,1,408.4,333.94Zm0,15.83a4.93,4.93,0,1,0-4.93-4.9A4.91,4.91,0,0,0,408.43,349.77Z"/><path class="cls-3" d="M424.22,355.41c-1.93,0-2.9-1-2.9-3V337a2.92,2.92,0,0,1,5.83,0v12.56h3.11a2.95,2.95,0,0,1,0,5.89Z"/><path class="cls-3" d="M451.7,346.29c0,6.22-2.83,9.34-8.54,9.34s-8.67-3.12-8.67-9.34V337a2.93,2.93,0,0,1,5.86,0V347.2c0,1.72.9,2.6,2.75,2.6s2.75-.88,2.75-2.6V337a2.93,2.93,0,0,1,5.85,0Z"/><path class="cls-3" d="M464.12,340.13a4.7,4.7,0,1,0,0,9.39h2.17a2.95,2.95,0,0,1,0,5.89h-1.21c.33,1.24,1.15,1.67,1.15,3.11,0,2.06-1.21,3.36-3.62,3.36a1.37,1.37,0,0,1-1.45-1.42,1.35,1.35,0,0,1,1.29-1.51.75.75,0,0,0,.79-.85c0-1-.91-1.75-1.15-2.84-5.68-.87-8.52-5.61-8.52-10.33,0-5.34,3.66-10.78,11-10.78h1.69a3,3,0,0,1,0,6Z"/><path class="cls-3" d="M481.72,333.94a10.85,10.85,0,1,1-10.84,10.84A10.84,10.84,0,0,1,481.72,333.94Zm5.08-5.83a1.51,1.51,0,0,1,1.54,1.45c0,1.84-2.12,3.05-3.9,3.05s-3.68-1.42-5.13-1.42c-.61,0-.88.21-1.66,1.06a1.48,1.48,0,0,1-1,.51,1.54,1.54,0,0,1-1.51-1.45c0-1.81,2.11-3.08,3.89-3.08s3.57,1.42,5.08,1.42c.69,0,1-.18,1.69-1A1.28,1.28,0,0,1,486.8,328.11Zm-5.05,21.66a4.93,4.93,0,1,0-4.92-4.9A4.91,4.91,0,0,0,481.75,349.77Z"/><path class="cls-3" d="M497.55,355.41c-1.94,0-2.9-1-2.9-3V337.11c0-2,1-3,2.9-3h10a3,3,0,0,1,0,5.92h-7v2h5.86a2.69,2.69,0,0,1,0,5.38h-5.86v2h7a2.95,2.95,0,0,1,0,5.89Z"/><path class="cls-3" d="M521.59,355.41h-5.83a2.8,2.8,0,0,1-2.9-3,2.84,2.84,0,0,1,3-2.93h6.1a1.08,1.08,0,0,0,1.18-1.08,1.1,1.1,0,0,0-1.18-1.15h-3c-4.14,0-6.25-1.93-6.25-6.31q0-6.84,6.67-6.83H524a2.91,2.91,0,0,1,3.08,2.93,2.94,2.94,0,0,1-3.11,3h-5.07a1.05,1.05,0,0,0-1.15,1.12,1.06,1.06,0,0,0,1.15,1.09h3c4.26,0,6.25,2,6.25,6.37S526,355.41,521.59,355.41Z"/><path class="cls-3" d="M547.56,340.13a4.7,4.7,0,1,0,0,9.39h2.17a2.95,2.95,0,0,1,0,5.89h-2.14c-7,0-10.57-5.19-10.57-10.48s3.65-10.78,11-10.78h1.69a3,3,0,0,1,0,6Z"/><path class="cls-3" d="M561.69,347.38a3,3,0,0,1-.42-1.6c0-1.75.66-2.78,2.27-2.78H564a1.53,1.53,0,0,0,1.66-1.75c0-1.09-.6-1.48-1.84-1.48h-3.17v12.62c0,2-1,3-2.93,3a2.62,2.62,0,0,1-3-3V337.11c0-2,.93-3,2.84-3h6.34c5,0,7.19,3.23,7.19,6.46a6.06,6.06,0,0,1-3.57,5.8l2.81,4.41a3.85,3.85,0,0,1,.58,1.82,3.08,3.08,0,0,1-3.18,2.89,2.75,2.75,0,0,1-2.47-1.51Z"/><path class="cls-3" d="M578.94,352.6a2.93,2.93,0,0,1-5.86,0V337a2.93,2.93,0,0,1,5.86,0Z"/><path class="cls-3" d="M593.68,351.31h-6.29l-.93,2.32a2.85,2.85,0,0,1-2.57,1.9,3,3,0,0,1-3.17-2.77,2.49,2.49,0,0,1,.21-1.18l7.19-15.77a2.6,2.6,0,0,1,2.72-1.75,2.52,2.52,0,0,1,2.65,1.78l6.56,15.74a2.65,2.65,0,0,1,.21,1.18,3,3,0,0,1-3.14,2.77,2.55,2.55,0,0,1-2.6-1.9Zm-4.44-4.62h2.83l-1.29-3.84Z"/><path class="cls-3" d="M609.2,352.6a2.78,2.78,0,0,1-3,2.93,2.75,2.75,0,0,1-2.9-2.93V340.07h-2.06a3,3,0,0,1,0-5.92h9.91a3,3,0,0,1,0,5.92h-2Z"/><path class="cls-3" d="M621.76,352.6a2.93,2.93,0,1,1-5.86,0V337a2.93,2.93,0,0,1,5.86,0Z"/><path class="cls-3" d="M632.87,346.56l4.2-10.63a2.78,2.78,0,0,1,2.63-1.87,3,3,0,0,1,3.17,2.78,2,2,0,0,1-.27,1.18l-7,15.76a2.72,2.72,0,0,1-2.78,1.75,2.52,2.52,0,0,1-2.65-1.78L623.69,338a3,3,0,0,1-.27-1.18,3.07,3.07,0,0,1,3.17-2.78,2.68,2.68,0,0,1,2.6,1.87Z"/><path class="cls-3" d="M653.74,351.31h-6.28l-.94,2.32a2.84,2.84,0,0,1-2.56,1.9,3,3,0,0,1-3.17-2.77,2.49,2.49,0,0,1,.21-1.18l7.19-15.77a2.58,2.58,0,0,1,2.71-1.75,2.53,2.53,0,0,1,2.66,1.78l6.56,15.74a2.65,2.65,0,0,1,.21,1.18,3,3,0,0,1-3.14,2.77,2.55,2.55,0,0,1-2.6-1.9Zm-4.44-4.62h2.84l-1.3-3.84Z"/><path class="cls-3" d="M670.93,355.41H665.1a2.8,2.8,0,0,1-2.9-3,2.84,2.84,0,0,1,3-2.93h6.1a1.09,1.09,0,0,0,1.18-1.08,1.1,1.1,0,0,0-1.18-1.15h-3c-4.14,0-6.25-1.93-6.25-6.31q0-6.84,6.67-6.83h4.71a2.91,2.91,0,0,1,3.08,2.93,2.94,2.94,0,0,1-3.11,3h-5.07a1.05,1.05,0,0,0-1.15,1.12,1.06,1.06,0,0,0,1.15,1.09h3c4.26,0,6.25,2,6.25,6.37S675.34,355.41,670.93,355.41Z"/><path class="cls-4" d="M394.84,322.61c-9.77,0-14.65-5-14.65-14.95V229.35c0-9.31,6.72-14.65,14.65-14.65s14.81,5.34,14.81,14.65v63.5h15.72c9.16,0,14,6.72,14,14.81s-4.88,14.95-14,14.95Z"/><path class="cls-4" d="M530.69,308.42c0,9.77-6.87,14.81-15,14.81-7.94,0-14.65-5-14.65-14.81V282.93H477v25.49c0,9.77-6.87,14.81-15,14.81s-14.65-5-14.65-14.81V229.35c0-9.31,6.71-14.65,14.65-14.65s15,5.34,15,14.65V255h24.12V229.35c0-9.31,6.71-14.65,14.65-14.65s15,5.34,15,14.65Z"/></g></g></svg>